<?xml version="1.0" encoding="utf-8"?>
<svg xmlns="http://www.w3.org/2000/svg" viewBox="359.6527 2.8678 79.5637 79.1857" width="79.5637mm" height="79.1857mm"><g transform="matrix(1, 0, 0, 1, 354.89694213867193, -141.44497680664062)" id="g1202"><ellipse style="display:inline;fill:none;stroke:#ff0000;stroke-width:0.01;stroke-linecap:round;stroke-linejoin:round;stroke-miterlimit:4;stroke-dasharray:none;stroke-opacity:1" id="ellipse834" cx="44.537552" cy="183.90567" rx="39.781837" ry="39.59285"/><path style="display:inline;fill:#00ff00;fill-opacity:1;stroke:none;stroke-width:0.264583" d="m 40.747205,216.63733 c -2.402999,-0.28007 -4.919768,-0.76061 -5.432637,-1.03729 -0.223062,-0.12035 -0.79662,-0.30469 -1.27459,-0.40968 -0.47797,-0.10497 -1.18844,-0.35751 -1.578822,-0.56117 -0.390378,-0.20367 -0.840318,-0.37104 -0.999857,-0.37193 -0.316872,-0.002 -2.010032,-0.7929 -2.224202,-1.03924 -0.0732,-0.0842 -0.66848,-0.43809 -1.32292,-0.78652 -2.38786,-1.27131 -4.09643,-2.56232 -6.668799,-5.03904 -1.444991,-1.39125 -2.878631,-2.94627 -3.185861,-3.45559 -0.30723,-0.50932 -0.89317,-1.3584 -1.3021,-1.88685 -1.042329,-1.34696 -2.77278,-4.80356 -3.42647,-6.8444 -0.30297,-0.94588 -0.6562,-1.95792 -0.78496,-2.24895 -0.22909,-0.51783 -0.57347,-2.24607 -1.02808,-5.15938 -0.887179,-5.68528 0.4041,-13.28861 3.2018,-18.85297 8.4709,-16.84778 29.278486,-23.36392 45.679818,-14.30515 1.296458,0.71606 4.061039,2.47155 4.292467,2.72569 0.0728,0.0799 0.953432,0.85793 1.957031,1.72894 4.895062,4.24838 8.526982,10.50114 10.217762,17.59098 0.892641,3.74307 0.850109,10.81794 -0.0867,14.41979 -0.22709,0.87313 -0.540999,2.09754 -0.69758,2.72093 -0.156588,0.62338 -0.398078,1.33776 -0.536659,1.5875 -0.326329,0.5881 -1.328852,2.90059 -1.328852,3.06523 0,0.2872 -2.691569,4.59241 -3.329969,5.32634 -0.37973,0.43657 -1.06576,1.25554 -1.5245,1.81995 -0.45874,0.56439 -0.95314,1.13194 -1.098658,1.2612 -0.145522,0.12927 -1.038493,0.94564 -1.984382,1.81415 -0.94588,0.86853 -1.928151,1.64846 -2.182809,1.73319 -0.254662,0.0847 -0.463021,0.2651 -0.463021,0.40081 0,0.13572 -0.131691,0.24676 -0.292651,0.24676 -0.160959,0 -0.726508,0.32742 -1.25677,0.7276 -1.002409,0.75649 -1.9016,1.23137 -4.139118,2.18587 -0.727603,0.3104 -1.698102,0.73433 -2.156652,0.94211 -0.45856,0.20776 -1.119351,0.37774 -1.46844,0.37774 -0.349091,0 -0.74781,0.10414 -0.886059,0.23141 -0.936821,0.86252 -8.827933,1.54172 -12.68677,1.09197 z m 9.260417,-3.03652 c 0.727601,-0.18956 1.721429,-0.41678 2.208511,-0.50491 1.581978,-0.28626 5.669591,-2.0624 8.2338,-3.57774 3.351501,-1.98061 7.494871,-6.0632 9.588573,-9.4479 4.293899,-6.9416 5.716039,-14.83101 4.128079,-22.90077 -0.190939,-0.97033 -0.436301,-1.85338 -0.545251,-1.96233 -0.10895,-0.10893 -0.19808,-0.36336 -0.19808,-0.56537 0,-0.20201 -0.244628,-0.9263 -0.543618,-1.60955 -0.298982,-0.68323 -0.668711,-1.5399 -0.8216,-1.90371 -2.160821,-5.1415 -6.702013,-10.21629 -12.150742,-13.57849 -1.10362,-0.68101 -2.146001,-1.23819 -2.316402,-1.23819 -0.170399,0 -0.92964,-0.299 -1.6872,-0.66447 -1.57616,-0.76036 -7.526769,-2.33675 -8.055278,-2.13393 -0.193569,0.0743 -0.977563,0.0234 -1.742201,-0.11315 -1.470339,-0.26249 -5.300196,-0.007 -7.872547,0.52503 -1.526677,0.31582 -4.957188,1.43918 -6.085418,1.99276 -2.094811,1.02785 -3.089041,1.57038 -3.460411,1.88827 -0.22974,0.19667 -0.51999,0.35757 -0.645,0.35757 -0.125,0 -0.94906,0.56091 -1.831239,1.24644 -6.204331,4.82138 -9.78945,10.53684 -11.665501,18.59732 -0.63088,2.71058 -0.631549,8.33642 -10e-4,11.3771 1.77201,8.54991 6.836691,15.8796 13.92425,20.15143 4.50922,2.7178 8.452722,4.0303 13.336549,4.43879 2.763747,0.23118 6.539737,0.0589 8.202077,-0.3742 z m -14.995795,-9.7673 c -0.153458,-1.3145 -0.0352,-1.46418 1.021501,-1.2927 0.90881,0.14747 1.029301,0.0639 3.291631,-2.28403 l 2.348285,-2.43709 v -3.14071 c 0,-3.05561 0.01611,-3.14302 0.595319,-3.22526 l 0.59531,-0.0845 0.0435,-6.35 0.0435,-6.35001 h 1.4117 1.411701 l 0.132289,6.35001 c 0.10016,4.80778 0.212611,6.35803 0.46302,6.38307 0.181901,0.0182 0.420021,0.0479 0.52917,0.0661 0.10914,0.0181 0.198429,1.45028 0.198429,3.18248 v 3.14948 l 2.281963,2.3133 c 2.018479,2.04622 2.400339,2.32033 3.307289,2.37418 1.000328,0.0594 1.027319,0.0875 1.106699,1.15188 l 0.0814,1.09101 H 44.49555 35.116576 Z m -10.04481,-12.27923 c -0.94274,-0.061 -1.46447,-0.2838 -2.24537,-0.95884 -0.91444,-0.79046 -0.986919,-0.9429 -0.7171,-1.50803 0.16509,-0.34577 0.49649,-1.07515 0.73643,-1.62085 0.23995,-0.5457 0.54974,-0.99219 0.68844,-0.99219 0.13869,0 0.25217,-0.24596 0.25217,-0.54655 0,-0.30062 0.12528,-0.78065 0.2784,-1.06676 0.39356,-0.73538 1.84788,-4.71315 2.070381,-5.66275 0.14775,-0.63061 0.33333,-0.79923 0.90297,-0.82043 0.770509,-0.0287 0.952879,0.52376 0.468529,1.41935 -0.784809,1.45113 -2.66195,6.91372 -2.66195,7.74644 0,1.4395 0.45818,1.67664 3.4734,1.79774 4.063182,0.16322 4.953181,-0.52639 3.757882,-2.91175 -0.727562,-1.4519 -0.805692,-1.65369 -1.010482,-2.60982 -0.10807,-0.50455 -0.28805,-1.03642 -0.39997,-1.18193 -0.11191,-0.14553 -0.29237,-0.67957 -0.40102,-1.18676 -0.10864,-0.50719 -0.37361,-1.19086 -0.58881,-1.5193 -0.54227,-0.82762 -0.25068,-1.39499 0.71695,-1.39499 0.68029,0 0.80205,0.10097 0.80205,0.66506 0,0.36577 0.104371,0.87178 0.231931,1.12446 0.127561,0.25269 0.623821,1.7096 1.102798,3.23756 0.478981,1.52799 1.039982,2.91801 1.246661,3.08899 0.506021,0.41857 0.880251,2.139 0.692201,3.18218 -0.245721,1.36312 -0.902431,1.59912 -4.743041,1.70458 -1.88394,0.0517 -3.97799,0.0583 -4.65345,0.0146 z m 30.464566,-0.81756 c -0.581801,-0.16079 -0.67106,-0.34784 -0.741162,-1.5532 -0.0831,-1.42798 0.260062,-2.44457 0.82505,-2.44457 0.181423,0 0.353121,-0.28105 0.381551,-0.62457 0.0284,-0.34351 0.46002,-1.86157 0.959101,-3.37345 0.49907,-1.51188 0.94826,-3.04651 0.9982,-3.41032 0.0693,-0.50496 0.247311,-0.66145 0.752261,-0.66145 0.498369,0 0.651621,0.13046 0.621548,0.52915 -0.056,0.74311 -2.366418,7.30541 -2.64299,7.50706 -0.34979,0.25502 -0.252068,1.77475 0.144881,2.25306 0.28549,0.34399 0.906561,0.42636 3.214651,0.42636 3.35465,0 4.21816,-0.23797 4.21816,-1.16244 0,-1.05002 0.28072,-1.4834 0.9609,-1.4834 1.23095,0 1.72955,2.86425 0.650679,3.73787 -0.547999,0.44374 -1.08527,0.49272 -5.146619,0.46909 -2.494111,-0.0145 -4.832412,-0.10863 -5.196211,-0.20919 z m 8.44335,-4.98996 c -0.9251,-2.44944 -2.166401,-5.55691 -2.37658,-5.94953 -0.53502,-0.99947 -0.14368,-1.69611 0.78686,-1.40076 0.307551,0.0976 0.54959,0.4847 0.63105,1.00926 0.0727,0.468 0.3176,1.32718 0.544261,1.90926 0.22666,0.58207 0.66789,1.71318 0.980508,2.51354 0.899182,2.30208 0.934943,2.64584 0.275262,2.64584 -0.37506,0 -0.659439,-0.24593 -0.841361,-0.72761 z m -35.783626,-6.85712 c -0.31466,-0.31467 -0.18765,-0.50396 0.33812,-0.50396 0.38923,0 0.44577,0.0828 0.23219,0.34018 -0.32727,0.39433 -0.33698,0.39711 -0.57031,0.16378 z m 31.945347,-0.41437 c -0.383799,-0.44982 -0.396341,-0.50751 -0.0526,-0.2418 0.248287,0.19191 0.574349,0.27299 0.724569,0.18014 0.162949,-0.10071 0.209579,-0.003 0.115581,0.24181 -0.199591,0.52011 -0.187812,0.52279 -0.78755,-0.18015 z m 1.18268,-1.39361 c -0.0807,-0.86102 -0.210731,-1.07418 -0.697381,-1.14327 -0.483399,-0.0686 -0.629349,0.071 -0.76068,0.72762 -0.203219,1.01611 -0.625531,1.06451 -0.625531,0.0717 0,-0.94201 0.435901,-1.37584 1.382393,-1.37584 0.90061,0 1.342919,0.88187 1.015799,2.02531 -0.209331,0.73167 -0.21817,0.72309 -0.3146,-0.30551 z m -33.930247,0.18339 c -0.317619,-0.50438 0.0248,-1.58151 0.60068,-1.88972 0.67574,-0.36166 1.87723,0.57341 1.87723,1.46095 0,0.88845 -0.35225,0.8036 -0.72114,-0.17371 -0.39769,-1.0536 -1.20069,-0.96307 -1.39909,0.15774 -0.0968,0.54661 -0.20712,0.68382 -0.35768,0.44474 z m 11.82262,-0.38183 c -0.295421,-0.32742 -0.753049,-0.97295 -1.01696,-1.43447 -0.263909,-0.46154 -0.727569,-0.96739 -1.030358,-1.1241 -0.31709,-0.16412 -2.561292,-0.31313 -5.292821,-0.35147 l -4.74231,-0.0665 -0.22619,0.8599 c -0.26748,1.01686 -0.83043,1.10742 -1.407661,0.22645 -0.49598,-0.75696 -0.30971,-1.7643 0.45413,-2.45593 0.586761,-0.53131 4.6441,-0.90445 9.47371,-0.87127 2.418601,0.0166 2.538531,0.0456 3.175,0.76727 0.97469,1.10518 1.587497,1.95013 1.587497,2.18885 0,0.11593 0.119071,0.21077 0.264591,0.21077 0.145521,0 0.264581,-0.35718 0.264581,-0.79375 0,-0.85515 0.513109,-1.50009 1.796678,-2.25832 0.446299,-0.26363 0.868319,-0.69679 0.937817,-0.96258 0.0928,-0.35487 0.379003,-0.48327 1.07719,-0.48327 0.522952,0 0.950812,0.11593 0.950812,0.25762 0,0.1417 0.538719,0.79634 1.19715,1.45478 0.666899,0.6669 1.267511,1.54892 1.355991,1.99134 0.0874,0.43681 0.257299,0.79418 0.377638,0.79418 0.120341,0 0.567849,-0.50601 0.994461,-1.12448 1.42122,-2.06032 1.613648,-2.15307 4.350948,-2.09679 1.341692,0.0276 3.89473,0.13857 5.673433,0.24665 2.72416,0.16552 3.315919,0.27992 3.75363,0.72567 0.814769,0.8297 0.932339,1.77109 0.310711,2.48784 -0.675381,0.77871 -1.220692,0.58217 -1.441,-0.51938 l -0.171032,-0.85516 -4.786621,0.18895 c -2.632638,0.10391 -4.94607,0.25012 -5.14096,0.3249 -0.194889,0.0748 -0.78745,0.76483 -1.31681,1.53344 -0.891669,1.29467 -1.040529,1.39745 -2.023779,1.39745 -0.860361,0 -1.11552,-0.11896 -1.34757,-0.62827 -0.28606,-0.62782 -0.2866,-0.6279 -0.78195,-0.0962 -0.612921,0.65789 -2.96567,0.74365 -3.828189,0.13951 -0.516237,-0.3616 -0.594397,-0.34073 -0.991009,0.26459 -0.555461,0.84774 -1.715257,0.87699 -2.450748,0.0618 z m 5.685605,-2.64584 c -0.0447,-0.61846 -0.200419,-1.12447 -0.34594,-1.12447 -0.145518,0 -0.301189,0.50601 -0.34594,1.12447 -0.0646,0.89233 0.007,1.12448 0.34594,1.12448 0.339079,0 0.410501,-0.23215 0.34594,-1.12448 z m -1.26451,-5.77894 c -0.359699,-0.14668 -0.744828,-0.4096 -0.855849,-0.58424 -0.374439,-0.58906 -0.21348,-1.65213 0.31921,-2.10825 0.291039,-0.24919 0.52917,-0.55486 0.52917,-0.67926 0,-0.12438 -0.238131,-0.44165 -0.52917,-0.70504 -0.687719,-0.62239 -0.705669,-2.23695 -0.0341,-3.06632 0.70399,-0.86939 2.28233,-0.84977 2.963723,0.0368 0.670927,0.87299 0.661159,2.41376 -0.01921,3.02949 -0.291039,0.26339 -0.52917,0.58066 -0.52917,0.70504 0,0.1244 0.238131,0.43007 0.52917,0.67926 1.516381,1.29836 -0.416431,3.49069 -2.373781,2.69249 z" id="path1192"/></g></svg>
