<?xml version="1.0" encoding="utf-8"?>
<svg xmlns="http://www.w3.org/2000/svg" viewBox="499.6629 4.7689 79.5637 79.1857" width="79.5637mm" height="79.1857mm"><g transform="matrix(1, 0, 0, 1, 411.26098632812506, 1.857234001159668)" id="g1177"><ellipse ry="39.59285" rx="39.781837" cy="42.504486" cx="128.18373" id="path828" style="display:inline;fill:none;stroke:#ff0000;stroke-width:0.01;stroke-linecap:round;stroke-linejoin:round;stroke-miterlimit:4;stroke-dasharray:none;stroke-opacity:1"/><path style="display:inline;fill:#00ff00;fill-opacity:1;stroke:none;stroke-width:0.264583" d="m 124.09097,75.506121 c -1.16416,-0.17218 -2.29526,-0.393221 -2.51354,-0.491199 -0.21828,-0.098 -0.57548,-0.1563 -0.79376,-0.12959 -0.41031,0.0502 -2.37729,-0.44837 -3.30729,-0.838289 -0.29104,-0.122031 -1.06495,-0.425691 -1.71979,-0.674803 -5.65404,-2.15085 -11.47207,-6.746488 -14.91493,-11.78125 -1.380924,-2.01944 -3.866346,-6.738289 -3.869016,-7.34578 -7.93e-4,-0.183881 -0.1178,-0.54106 -0.259979,-0.793749 -0.223999,-0.398108 -0.695381,-1.974031 -0.968399,-3.237559 -0.0472,-0.218282 -0.16252,-1.083681 -0.256342,-1.923111 -0.0938,-0.83943 -0.27473,-1.590601 -0.40201,-1.669262 -0.127278,-0.0787 -0.23141,-1.683758 -0.23141,-3.566869 0,-3.37616 0.491741,-7.310091 1.17216,-9.377209 0.1916,-0.582091 0.49531,-1.53459 0.674902,-2.116671 0.541488,-1.755009 2.6714,-5.887 4.092634,-7.93961 1.5858,-2.290299 4.3536,-5.29402 6.12211,-6.64396 0.69799,-0.532779 1.49009,-1.174609 1.76024,-1.426289 0.27015,-0.25169 1.64626,-1.097531 3.05801,-1.879661 6.45907,-3.578409 13.706,-4.9538392 20.69079,-3.9270093 3.92328,0.5767493 6.29268,1.2386303 8.94765,2.4994693 1.07536,0.51068 2.04615,0.92852 2.15732,0.92852 0.4497,0 4.76419,3.055751 6.62212,4.69012 1.09141,0.96009 2.73925,2.68401 3.66187,3.830941 1.67494,2.082159 4.54023,6.652059 4.54023,7.241279 0,0.17127 0.31284,1.01082 0.69522,1.86567 0.88787,1.984989 1.65676,5.36311 1.94963,8.56574 0.24755,2.707001 -0.10259,9.788231 -0.49637,10.038681 -0.1278,0.0813 -0.31963,0.802619 -0.4263,1.602981 -0.10666,0.800369 -0.28027,1.574269 -0.3858,1.7198 -0.10552,0.145518 -0.47256,1.038478 -0.81563,1.984369 -1.26415,3.485381 -3.88065,7.644511 -6.73847,10.711299 -1.59109,1.70743 -5.84139,5.163701 -6.35,5.163701 -0.0582,0 -0.63502,0.35719 -1.28188,0.79375 -0.64686,0.43656 -1.27791,0.79425 -1.40233,0.794858 -0.12441,5.3e-4 -0.80163,0.293042 -1.50491,0.649862 -1.2074,0.612579 -2.92377,1.187491 -6.26193,2.09749 -2.7898,0.760521 -8.16236,1.03923 -11.2448,0.58334 z m 10.45105,-3.22765 c 2.19791,-0.603059 4.86173,-1.478041 5.15938,-1.69469 0.14552,-0.105921 0.68495,-0.327771 1.19873,-0.493012 0.51378,-0.165229 1.56597,-0.716527 2.3382,-1.225096 0.77223,-0.508582 1.46941,-0.924683 1.5493,-0.924683 0.0799,0 1.17083,-0.829519 2.42431,-1.843378 4.42338,-3.577791 7.50589,-8.04686 9.76943,-14.163911 1.39366,-3.766229 1.92064,-13.975781 0.79452,-15.392349 -0.13603,-0.171112 -0.2176,-0.468771 -0.18129,-0.661462 0.14313,-0.759489 -0.67728,-3.154129 -2.34086,-6.83265 -0.43707,-0.96646 -2.07988,-3.64428 -2.9035,-4.73278 -0.53885,-0.71215 -4.6409,-4.88929 -5.64895,-5.75237 -0.7882,-0.67484 -5.46964,-3.53777 -5.78493,-3.53777 -0.19148,0 -1.01693,-0.3269 -3.33163,-1.31943 -0.48213,-0.20673 -1.49001,-0.48302 -2.51355,-0.68904 -0.21828,-0.0439 -0.99219,-0.21679 -1.71979,-0.38413 -2.08497,-0.4795 -8.45031,-0.52281 -10.31875,-0.0702 -0.87312,0.21151 -2.32967,0.55226 -3.23675,0.75723 -0.90709,0.20498 -1.85959,0.48398 -2.11667,0.62001 -0.78477,0.41525 -2.38771,1.08557 -2.59594,1.08557 -0.10805,0 -1.22115,0.612811 -2.47356,1.361801 -4.14102,2.476509 -8.23529,6.542899 -10.69276,10.61998 -0.68289,1.132949 -1.24163,2.121749 -1.24163,2.197329 0,0.178001 -0.997474,2.479641 -1.342634,3.098091 -0.264911,0.474649 -0.471072,1.304869 -1.195771,4.81551 -0.634471,3.073568 -0.712581,4.624669 -0.3864,7.672921 0.324789,3.035139 1.15911,7.225919 1.594821,8.010769 0.33796,0.608761 1.329984,2.904489 1.329984,3.077828 0,0.454502 2.75264,4.574712 4.20434,6.293131 3.9643,4.692689 9.90534,8.49009 15.07238,9.634 0.92505,0.204801 1.79799,0.44409 1.93984,0.53176 1.09977,0.67969 10.11109,0.63769 12.65013,-0.059 z M 118.82854,67.93087 c -0.88374,-1.054169 -1.64269,-2.708828 -1.90182,-4.146338 -0.0994,-0.551611 -0.28964,-1.140582 -0.42268,-1.308831 -0.31654,-0.40033 -0.61164,-6.33308 -0.37717,-7.5829 0.12198,-0.650211 0.64511,-1.47118 1.58883,-2.493408 0.77384,-0.838212 1.79097,-2.206703 2.26029,-3.041061 0.89958,-1.599292 1.30709,-1.99219 4.05205,-3.90693 0.93878,-0.654842 2.00228,-1.607342 2.36333,-2.116662 1.36865,-1.930739 1.96256,-5.36647 1.12033,-6.48101 -0.54125,-0.716231 -0.77547,-0.311698 -1.34924,2.330319 -0.42716,1.966902 -0.52283,2.13546 -1.97511,3.480024 -2.16535,2.004728 -2.86944,2.300437 -5.28524,2.219718 -1.94351,-0.0649 -2.07084,-0.0308 -3.64537,0.97777 -1.4114,0.90406 -1.67075,1.19791 -1.9223,2.17803 -0.33722,1.31392 -1.04448,1.90973 -2.26693,1.90973 -1.03608,0 -1.10706,-0.311132 -0.20571,-0.901711 0.71575,-0.468979 0.93528,-1.744119 0.30026,-1.744119 -0.49191,0 -1.75547,1.02073 -1.75547,1.41811 0,0.59934 -1.04362,0.403839 -1.59654,-0.299072 -0.36233,-0.460617 -0.49722,-0.909718 -0.39526,-1.315938 0.0851,-0.339181 0.0215,-1.11164 -0.1414,-1.716591 -0.29609,-1.099569 -0.29582,-1.10023 0.88449,-2.172899 1.36849,-1.243681 3.41749,-4.105312 4.13045,-5.76858 0.27148,-0.633359 0.58155,-1.80048 0.68904,-2.593611 0.23278,-1.717659 0.56436,-2.37908 1.97817,-3.946001 1.00385,-1.112559 1.34354,-1.861669 0.8442,-1.861669 -0.12179,0 -0.8326,-0.59531 -1.57958,-1.32292 -0.74699,-0.727599 -1.48078,-1.322919 -1.63065,-1.322919 -0.14988,0 -0.2725,-0.11906 -0.2725,-0.26458 0,-0.449211 1.86294,-0.288551 4.62508,0.39889 1.45238,0.36147 3.41692,0.729709 4.36563,0.818329 1.92648,0.17994 5.23967,0.94607 6.66272,1.54065 2.33516,0.975701 5.35408,4.17124 6.14314,6.50255 0.87136,2.574481 1.06423,4.87258 0.70716,8.426029 -0.18502,1.84136 -0.41273,3.466993 -0.506,3.612511 -0.0933,0.145521 -0.3079,0.919432 -0.47694,1.719791 -0.95582,4.525661 -1.35136,5.346239 -2.93199,6.082591 -2.73007,1.271839 -8.31133,5.958149 -9.66442,8.11475 -0.67761,1.079968 -1.45899,3.412738 -1.57709,4.708268 l -0.0712,0.781641 z m -8.83095,-22.148739 c 0.42862,-0.4859 0.89739,-2.18281 0.60299,-2.18281 -0.094,0 -0.57974,0.31179 -1.07935,0.692859 -0.9167,0.699201 -1.18724,1.531781 -0.57766,1.777751 0.54252,0.218909 0.62753,0.195689 1.05402,-0.2878 z m 8.01727,-8.695531 c 0.4736,-0.310319 0.65215,-0.66475 0.65215,-1.294609 0,-1.19407 -0.63295,-1.373961 -1.77347,-0.50404 -1.15206,0.878719 -1.3599,1.408572 -0.7325,1.867341 0.63995,0.467939 1.05849,0.452429 1.85382,-0.0687 z m 17.05619,21.543442 c -7e-5,-0.481531 -0.23124,-1.483541 -0.51369,-2.226692 l -0.51356,-1.351169 1.02464,-3.17654 c 1.79007,-5.549461 2.7853,-12.230769 2.14602,-14.407009 -1.04631,-3.561843 -3.17872,-7.095271 -5.09569,-8.443622 -0.48623,-0.342 -1.04138,-0.77456 -1.23367,-0.96125 -0.1923,-0.18669 -0.44505,-0.33944 -0.56168,-0.33944 -0.11663,0 -0.79274,-0.25988 -1.50246,-0.5775 -0.70972,-0.317629 -1.469,-0.608219 -1.68728,-0.645779 -0.21828,-0.0375 -1.17078,-0.2647 -2.11666,-0.50477 -2.4595,-0.624251 -3.61365,-0.749131 -3.82111,-0.413451 -0.22036,0.356521 -0.67682,0.381151 -0.67682,0.0365 0,-0.13911 0.86321,-0.74905 1.91824,-1.35544 3.34636,-1.92336 4.95624,-3.011819 4.95862,-3.352589 0.001,-0.1819 0.25318,-0.330731 0.55979,-0.330731 0.39964,0 0.51201,0.118491 0.39688,0.418521 -0.0883,0.23018 -0.1606,0.60011 -0.1606,0.822049 0,0.25827 -0.14978,0.34607 -0.41605,0.24389 -0.45434,-0.17434 -1.43604,0.24727 -1.43604,0.61675 0,0.12677 0.26789,0.1808 0.59531,0.12005 0.32743,-0.0608 0.44649,-0.0397 0.26459,0.0468 -0.46402,0.22065 -0.41205,0.8191 0.0878,1.01091 0.70196,0.26936 5.55535,0.17893 6.99766,-0.13039 1.399,-0.30003 3.16717,-1.55614 3.16717,-2.249969 0,-0.2032 0.23813,-0.36946 0.52917,-0.36946 0.55803,0 0.712,0.38493 0.26458,0.661459 -0.14552,0.0899 -0.26458,0.99584 -0.26458,2.01313 0,2.348181 -0.36161,3.035601 -2.36442,4.49481 -0.87942,0.64074 -1.60016,1.246251 -1.60164,1.345581 -0.004,0.246149 0.63844,0.405011 2.49099,0.616288 0.86222,0.0983 2.41003,0.402942 3.43959,0.67691 2.08279,0.554221 6.27009,0.686293 7.45659,0.235191 0.99269,-0.37742 1.61442,-0.137189 1.13621,0.439022 -0.19261,0.232079 -0.47603,0.67715 -0.62981,0.989048 -0.15379,0.311909 -0.54539,0.684631 -0.87023,0.828281 -0.68302,0.30204 -0.78394,1.063231 -0.1721,1.298009 0.23018,0.0883 0.81847,0.160599 1.3073,0.160599 0.89677,0 1.5689,0.53336 0.9374,0.74386 -0.18748,0.0625 -0.59552,0.408292 -0.90674,0.76844 -0.64048,0.741173 -1.44,1.198603 -3.11372,1.781482 -1.61454,0.562269 -2.39401,0.511138 -3.82753,-0.251071 -1.3635,-0.724978 -2.61954,-0.861009 -2.83223,-0.306738 -0.18399,0.479479 0.0408,0.741578 1.17094,1.365069 0.52752,0.291039 1.61695,0.971701 2.42095,1.51257 1.76942,1.190339 4.0807,2.02342 6.30251,2.271682 1.64521,0.183818 2.32348,0.654347 1.32111,0.916478 -0.29001,0.0758 -0.57303,0.0612 -0.62891,-0.0325 -0.0559,-0.0937 -0.067,-0.0258 -0.0246,0.15087 0.0423,0.176671 -0.27524,0.57203 -0.70575,0.878571 -0.62078,0.442039 -1.11058,0.54397 -2.36739,0.49268 -0.87157,-0.0356 -1.66418,0.01479 -1.76134,0.11199 -0.4507,0.4507 1.73462,2.0313 2.68949,1.945271 0.91813,-0.0827 0.73773,0.745479 -0.23936,1.098798 -1.51041,0.546171 -3.21281,-0.177037 -5.603,-2.38024 -0.63178,-0.58235 -1.27304,-0.98198 -1.42502,-0.88805 -0.15197,0.0939 -0.27633,0.615209 -0.27633,1.15841 0,0.817551 0.20029,1.184191 1.163,2.12903 0.63965,0.627761 1.43392,1.277631 1.76504,1.444152 0.69163,0.3478 0.99031,0.96407 0.46745,0.964498 -0.68363,5.3e-4 -4.85951,3.093591 -5.56227,4.11991 -0.39138,0.571539 -0.7902,1.493951 -0.88627,2.04979 -0.0961,0.555832 -0.32827,1.069542 -0.51596,1.141562 -0.1877,0.072 -0.28453,0.347959 -0.21517,0.61318 0.0694,0.26522 -0.003,0.562209 -0.16153,0.659978 -0.18498,0.114332 -0.28767,-0.134689 -0.28776,-0.69774 z" id="path1167"/></g></svg>
