<?xml version="1.0" encoding="utf-8"?>
<svg xmlns="http://www.w3.org/2000/svg" viewBox="73.5474 212.8162 79.5637 79.1857" width="79.5637mm" height="79.1857mm"><g transform="matrix(1, 0, 0, 1, -14.854514122009274, 20.462501525878906)" id="g1198"><ellipse ry="39.59285" rx="39.781837" cy="231.9465" cx="128.18373" id="ellipse1194" style="display: inline; fill: none; stroke-width: 0.01; stroke-linecap: round; stroke-linejoin: round; stroke-miterlimit: 4; stroke-dasharray: none; stroke-opacity: 1; stroke: rgb(0, 0, 0); fill-rule: evenodd; paint-order: fill;"/><path id="path1196" d="m 128.15324,264.92864 c -0.0933,-0.0933 -1.75611,-0.28849 -3.6952,-0.43383 -1.93908,-0.14536 -3.64838,-0.36004 -3.79843,-0.47708 -0.15005,-0.11702 -0.80269,-0.29378 -1.45031,-0.39279 -0.64763,-0.099 -1.30247,-0.27745 -1.45521,-0.39653 -0.15274,-0.11906 -0.62632,-0.30004 -1.05241,-0.40212 -1.94875,-0.46696 -5.94329,-2.67109 -9.01488,-4.97424 -1.9841,-1.48772 -5.63204,-5.31709 -7.12638,-7.4808 -1.204486,-1.744 -3.367674,-6.2085 -3.974176,-8.20208 -0.26562,-0.87313 -0.582189,-1.82563 -0.703469,-2.11667 -1.14622,-2.7505 -1.137951,-14.27484 0.01209,-16.93333 0.12591,-0.29104 0.49472,-1.36261 0.819581,-2.38125 2.528509,-7.92847 9.317624,-15.46519 17.237794,-19.13599 12.51975,-4.51109 25.91273,-4.14522 35.76298,4.98262 0.60425,0.57794 1.17224,1.05206 1.26222,1.05364 0.39573,0.007 4.21635,4.83827 5.44224,6.88201 2.51674,4.19576 4.33245,9.74428 4.67737,14.29329 0.17841,2.35309 -0.23444,9.17412 -0.58175,9.61142 -0.13309,0.16757 -0.32451,0.87476 -0.42538,1.57158 -0.10087,0.69678 -0.36268,1.70881 -0.5818,2.24895 -0.21912,0.54013 -0.53856,1.33869 -0.70987,1.77457 -0.70848,1.80265 -3.10669,6.16433 -4.0555,7.37586 -1.96161,2.50476 -6.05761,6.40255 -8.16224,7.76722 -1.16416,0.75488 -2.26047,1.49653 -2.43622,1.64814 -0.17576,0.1516 -0.43304,0.27564 -0.57173,0.27564 -0.1387,0 -1.14202,0.41671 -2.22961,0.92605 -1.08759,0.50932 -2.16274,0.92603 -2.38922,0.92603 -0.22648,0 -0.47509,0.10245 -0.55246,0.22763 -0.0774,0.1252 -0.67711,0.30117 -1.33275,0.39103 -0.65564,0.0899 -1.40303,0.28059 -1.66088,0.42381 -0.25784,0.14324 -1.54036,0.38007 -2.85005,0.5263 -1.30969,0.14623 -2.7983,0.33894 -3.30803,0.42821 -0.50973,0.0893 -1.0031,0.086 -1.09637,-0.007 z m 2.31643,-3.02828 c 2.46821,-0.20465 5.84695,-0.85349 7.11506,-1.36636 6.27544,-2.53794 9.12341,-4.38539 12.72742,-8.25616 4.90772,-5.27101 7.64607,-11.88883 8.01464,-19.36904 0.20665,-4.19424 -0.51372,-8.9637 -1.78676,-11.82974 -0.27726,-0.6242 -0.65708,-1.53483 -0.84405,-2.02362 -0.99642,-2.60498 -5.13164,-8.24537 -7.31727,-9.98066 -0.53498,-0.42475 -1.43757,-1.15923 -2.00576,-1.63218 -0.56819,-0.47295 -1.13237,-0.8599 -1.25373,-0.8599 -0.12135,0 -0.37798,-0.15303 -0.57027,-0.34006 -0.56615,-0.55067 -3.10589,-2.04119 -3.47804,-2.04119 -0.18828,0 -0.57344,-0.17481 -0.85592,-0.38845 -0.28247,-0.21366 -0.69218,-0.39629 -0.91046,-0.40585 -0.21829,-0.01 -0.87313,-0.24744 -1.45521,-0.52861 -0.58209,-0.28117 -1.36196,-0.51525 -1.73303,-0.52019 -0.37108,-0.005 -0.79418,-0.12848 -0.94022,-0.27451 -0.29033,-0.29033 -4.66505,-0.82735 -6.98405,-0.85732 -1.89664,-0.0245 -6.90018,0.54975 -7.26042,0.83329 -0.15412,0.1213 -0.75647,0.3005 -1.33855,0.39819 -0.58209,0.0977 -1.41552,0.34254 -1.85209,0.54407 -0.43656,0.20153 -1.27,0.56032 -1.85208,0.79731 -3.92664,1.59864 -8.86869,5.42485 -11.79694,9.13332 -1.40834,1.78358 -3.30183,4.9743 -3.92593,6.61555 -0.304145,0.79984 -0.675855,1.66852 -0.826025,1.93041 -0.15018,0.26188 -0.381661,0.97626 -0.514421,1.5875 -0.13276,0.61124 -0.360299,1.64711 -0.50564,2.30196 -0.806598,3.63407 -0.901938,4.99599 -0.587409,8.39089 0.381539,4.11813 1.334381,7.92721 2.600215,10.39453 0.18663,0.36379 0.34007,0.75205 0.34097,0.86277 0.007,0.81756 4.18433,6.57274 6.09586,8.39764 4.98181,4.75602 12.64865,8.24516 18.77662,8.54511 0.94589,0.0463 1.83886,0.10192 1.98438,0.12363 0.14552,0.0217 1.46812,-0.0604 2.93911,-0.18233 z m -4.10116,-3.30594 c -1.21073,-0.89326 -2.2991,-2.45629 -2.66854,-3.8323 -0.17209,-0.64098 -0.53112,-1.35536 -0.79785,-1.5875 -0.61577,-0.53597 -0.90707,-1.51257 -0.52212,-1.75049 0.1622,-0.10025 2.72833,-0.19957 5.70249,-0.2207 4.77087,-0.0339 5.42357,0.0119 5.54341,0.38964 0.16472,0.51908 -0.29557,1.82088 -0.64381,1.82088 -0.13756,0 -0.33313,0.37796 -0.43459,0.8399 -0.10146,0.46196 -0.40755,1.2061 -0.6802,1.65365 -0.27266,0.44757 -0.57939,0.99233 -0.68164,1.21062 -0.49423,1.05507 -2.06466,2.1126 -3.14068,2.11492 -0.44467,0 -1.19908,-0.28642 -1.67647,-0.63862 z m 2.92805,-2.82094 c 0.82746,-0.84507 1.26007,-1.49207 1.16438,-1.74144 -0.0837,-0.21822 -0.15226,-0.50611 -0.15226,-0.63973 0,-0.13362 -1.07156,-0.24294 -2.38125,-0.24294 -1.30969,0 -2.38125,0.0601 -2.38125,0.13359 0,0.0735 0.29766,0.7506 0.66146,1.50473 0.3638,0.75413 0.66146,1.51872 0.66146,1.69909 0,0.18039 0.20836,0.38239 0.46302,0.44897 0.25466,0.0665 0.50459,0.1348 0.55541,0.15168 0.0508,0.0169 0.68488,-0.57441 1.40903,-1.31395 z m -3.52548,-10.22917 c -0.0218,-1.63805 -0.0516,-3.12547 -0.0661,-3.30537 -0.0455,-0.56216 0.84915,-0.5261 1.15563,0.0466 0.39296,0.73426 1.75505,0.73413 2.34969,-2.3e-4 0.28821,-0.35591 0.60164,-0.48395 0.90231,-0.36857 0.51348,0.19704 0.59787,0.53336 0.19612,0.78164 -0.14956,0.0924 -0.26511,1.39319 -0.26579,2.99217 l -10e-4,2.82867 -2.11546,0.003 -2.11546,0.003 -0.0397,-2.97827 z m -1.69997,-7.06429 c -0.23365,-0.93091 0.0458,-1.20565 1.2261,-1.20565 h 1.04272 v -5.82083 -5.82084 l -4.29948,-0.004 -4.29949,-0.004 -1.32291,-1.47754 -1.32292,-1.47755 -0.13229,-5.55015 c -0.0728,-3.05259 -0.0415,-5.71171 0.0694,-5.90917 0.30927,-0.55051 2.96845,-1.71728 3.91382,-1.71728 0.70407,0 0.81899,-0.0842 0.70583,-0.51687 -0.0743,-0.28428 0.0271,-0.73077 0.22531,-0.99219 0.19826,-0.26143 0.36426,-0.69159 0.36889,-0.95591 0.006,-0.36671 0.18084,-0.46076 0.73602,-0.39688 0.69602,0.0801 0.72402,0.13966 0.64491,1.37196 -0.0668,1.04049 0.0311,1.40939 0.50914,1.91823 0.32551,0.34649 0.86875,0.62999 1.20718,0.62999 0.33844,0 0.61534,0.11906 0.61534,0.26458 0,0.16492 1.46999,0.26048 3.90261,0.25368 3.47669,-0.01 4.03254,-0.0747 5.09323,-0.59531 l 1.19062,-0.58441 0.0788,-1.65365 c 0.0727,-1.52641 0.1256,-1.65364 0.68742,-1.65364 0.57562,0 1.04659,0.7229 1.56978,2.40949 0.0815,0.26264 0.54233,0.48018 1.20582,0.56917 0.59066,0.0792 1.26429,0.3344 1.49695,0.56706 0.23266,0.23267 0.57466,0.42303 0.76,0.42303 0.18533,0 0.53401,0.21773 0.77485,0.48385 0.37817,0.41788 0.43771,1.23864 0.43661,6.01927 l -0.001,5.53542 -1.48792,1.52135 -1.48792,1.52136 h -3.91314 c -2.15222,0 -4.10147,0.0723 -4.33165,0.1606 -0.36353,0.13952 -0.41846,0.90351 -0.41846,5.82083 v 5.66023 h 1.16232 c 1.27823,0 1.68513,0.45181 1.20867,1.34208 -0.24949,0.46619 -0.58995,0.51001 -3.96276,0.51001 h -3.68981 z m 9.90518,-14.85684 c 0.99864,-0.31386 -0.97942,-5.88929 -2.60248,-7.33545 -0.42813,-0.38146 -1.08217,-0.76979 -1.45344,-0.86298 -0.37126,-0.0932 -0.74045,-0.27529 -0.82043,-0.40469 -0.18742,-0.30326 -1.89054,-0.30725 -2.07743,-0.005 -0.0783,0.12672 -0.50087,0.30211 -0.939,0.38973 -0.78262,0.15653 -2.10744,1.38077 -2.62162,2.42257 -0.77518,1.57064 -1.88446,5.01739 -1.88446,5.8554 0,0.0683 0.68461,0.0884 1.52136,0.0448 l 1.52135,-0.0793 0.7014,-2.09576 c 0.76737,-2.29289 1.44833,-3.05185 2.73818,-3.05185 1.46458,0 2.47246,1.3647 2.90689,3.93605 0.25045,1.48245 1.0566,1.80022 3.00968,1.1864 z m -9.55954,-15.14242 c -0.29361,-0.35311 0.1153,-0.826 0.72262,-0.83567 0.14005,-0.002 0.51572,-0.33147 0.83481,-0.73165 0.50895,-0.63828 0.76233,-0.72762 2.06393,-0.72762 1.27515,0 1.56696,0.0977 2.0756,0.695 0.32552,0.38224 0.80021,0.76545 1.05487,0.85159 0.25466,0.0861 0.46311,0.3687 0.46321,0.62792 1.8e-4,0.42804 -0.31773,0.47134 -3.46155,0.47134 -2.55245,0 -3.53838,-0.0922 -3.75349,-0.35091 z m 6.28881,-0.31056 c 0.0899,-0.14551 0.0374,-0.26457 -0.11668,-0.26457 -0.15411,0 -0.2802,0.11906 -0.2802,0.26457 0,0.14553 0.0525,0.26459 0.11668,0.26459 0.0642,0 0.19026,-0.11906 0.2802,-0.26459 z" style="display: inline; fill-opacity: 1; stroke-width: 0.264583; stroke: rgb(0, 0, 0); fill-rule: evenodd; paint-order: fill; fill: rgb(51, 45, 255);"/></g></svg>
